<svg width="56" height="56" viewBox="0 0 56 56" fill="none" xmlns="http://www.w3.org/2000/svg">
<rect width="56" height="56" rx="14" fill="#004521"/>
<path d="M45.1025 35.2318C45.1025 35.6326 45.0374 36.0233 44.9171 36.384C44.842 36.5894 44.7518 36.7898 44.6566 36.9852C43.8702 38.5782 42.4725 39.8756 40.6491 40.5168C39.9227 40.7723 39.1763 40.9076 38.4048 40.8975C38.0141 40.8925 37.6233 40.8975 37.2326 40.8975C36.8719 40.8975 36.5113 40.8975 36.1506 40.8975C35.7298 40.8975 35.309 40.8975 34.8882 40.8975C34.3622 40.8975 33.8362 40.8975 33.3102 40.8925C31.8324 40.8925 30.3546 40.8925 28.8768 40.8925C27.7697 40.8925 26.6626 40.8925 25.5556 40.8925H25.26C25.0546 40.8925 24.8542 40.8925 24.6488 40.8925C23.8724 40.8925 23.0959 40.8975 22.3245 40.9026C21.543 40.9026 20.7615 40.9076 19.98 40.9126C19.5893 40.9126 19.1985 40.9126 18.8078 40.9126C18.2317 40.9176 17.6707 40.8474 17.1246 40.7072C16.9343 40.6571 16.7489 40.602 16.5636 40.5369C13.8585 39.5851 12.0951 37.1905 11.8547 34.5305C11.6743 32.5217 11.509 30.5129 11.3387 28.5041C11.1433 26.2399 10.948 23.9706 10.7576 21.7063C10.7426 21.536 10.7326 21.3657 10.7175 21.1653C12.4308 21.1803 14.134 21.1953 15.8472 21.2054C15.8923 21.6762 15.9324 22.1221 15.9725 22.5679C16.1528 24.5517 16.3331 26.5304 16.5135 28.5142C16.6588 30.1022 16.804 31.6902 16.9493 33.2731C17.0745 34.6357 18.1616 35.6927 19.5342 35.7528C19.5893 35.7528 19.6444 35.7528 19.6995 35.7578C20.2405 35.7729 20.7815 35.7578 21.3226 35.7628H22.3345V39.3296L27.2337 35.7578C29.2575 35.7578 31.2864 35.7578 33.3152 35.7578H33.8061C34.5025 35.7578 35.1988 35.7578 35.8951 35.7578C35.9802 35.7578 36.0704 35.7578 36.1556 35.7578C36.6665 35.7578 37.1725 35.7679 37.6835 35.7428C37.7486 35.7428 37.8137 35.7328 37.8788 35.7278C37.969 35.7178 38.0542 35.7027 38.1343 35.6877C38.2646 35.6627 38.3848 35.6276 38.505 35.5825C38.5251 35.5775 38.5451 35.5675 38.5651 35.5575C39.3115 35.2419 39.8375 34.4955 39.8375 33.6338C39.8375 33.6188 39.8375 33.6088 39.8375 33.5937C39.8375 33.4885 39.8275 33.3884 39.8075 33.2832C39.7724 32.8774 39.7323 32.4766 39.6973 32.0709C39.5871 30.8436 39.4718 29.6162 39.3616 28.3939C39.2164 26.8059 39.0711 25.2179 38.9258 23.6349C38.8006 22.2724 37.7135 21.2154 36.3409 21.1553C35.7448 21.1302 35.1487 21.1452 34.5526 21.1452C33.8562 21.1452 33.1599 21.1452 32.4636 21.1452C31.7473 21.1452 31.0309 21.1452 30.3145 21.1452H29.2275C26.312 21.1452 23.3965 21.1452 20.486 21.1452C19.2937 21.1452 18.1065 21.1452 16.9142 21.1452C16.5786 21.1452 16.243 21.1402 15.8071 21.1352C15.201 19.427 14.6049 17.7438 13.9987 16.0456C14.1941 16.0406 14.3794 16.0306 14.5598 16.0306C18.0063 16.0306 21.4528 16.0256 24.9043 16.0206C26.7077 16.0206 28.5162 16.0206 30.3196 16.0206C30.6201 16.0206 30.9257 16.0206 31.2263 16.0206C32.0027 16.0206 32.7792 16.0206 33.5507 16.0105C34.3321 16.0105 35.1136 16.0055 35.8951 16.0005C36.2858 16.0005 36.6766 16.0005 37.0673 16.0005C37.8388 15.9905 38.5852 16.1258 39.3115 16.3812C41.6009 17.1878 43.2139 19.0212 43.8 21.1803C43.9052 21.5761 43.9804 21.9818 44.0154 22.3876C44.1958 24.3964 44.3611 26.4052 44.5314 28.414C44.7167 30.558 44.9021 32.7021 45.0824 34.8511C45.0824 34.9062 45.0925 34.9563 45.0975 35.0114C45.1025 35.0866 45.1075 35.1667 45.1075 35.2469L45.1025 35.2318Z" fill="white"/>
<path d="M22.7151 30.1222C23.6226 30.1222 24.3582 29.3866 24.3582 28.4791C24.3582 27.5716 23.6226 26.836 22.7151 26.836C21.8077 26.836 21.072 27.5716 21.072 28.4791C21.072 29.3866 21.8077 30.1222 22.7151 30.1222Z" fill="#FE7D05"/>
<path d="M27.5092 30.1222C28.4167 30.1222 29.1523 29.3866 29.1523 28.4791C29.1523 27.5716 28.4167 26.836 27.5092 26.836C26.6017 26.836 25.8661 27.5716 25.8661 28.4791C25.8661 29.3866 26.6017 30.1222 27.5092 30.1222Z" fill="#FE7D05"/>
<path d="M32.3033 30.1222C33.2107 30.1222 33.9464 29.3866 33.9464 28.4791C33.9464 27.5716 33.2107 26.836 32.3033 26.836C31.3958 26.836 30.6602 27.5716 30.6602 28.4791C30.6602 29.3866 31.3958 30.1222 32.3033 30.1222Z" fill="#FE7D05"/>
</svg>
