<svg width="39" height="28" viewBox="0 0 39 28" fill="none" xmlns="http://www.w3.org/2000/svg">
<path d="M38.8201 21.615C38.8201 22.0655 38.7469 22.5046 38.6118 22.91C38.5274 23.1408 38.426 23.366 38.319 23.5856C37.4351 25.376 35.8643 26.8343 33.8149 27.5549C32.9985 27.8421 32.1596 27.9941 31.2925 27.9828C30.8534 27.9772 30.4142 27.9828 29.975 27.9828C29.5697 27.9828 29.1643 27.9828 28.7589 27.9828C28.286 27.9828 27.813 27.9828 27.3401 27.9828C26.7489 27.9828 26.1578 27.9828 25.5666 27.9772C23.9057 27.9772 22.2447 27.9772 20.5838 27.9772C19.3396 27.9772 18.0953 27.9772 16.851 27.9772H16.5188C16.288 27.9772 16.0628 27.9772 15.8319 27.9772C14.9592 27.9772 14.0865 27.9828 13.2195 27.9885C12.3412 27.9885 11.4629 27.9941 10.5845 27.9997C10.1454 27.9997 9.70623 27.9997 9.26707 27.9997C8.61959 28.0053 7.98901 27.9265 7.37532 27.7689C7.16137 27.7126 6.95305 27.6506 6.74473 27.5774C3.70441 26.5077 1.72257 23.8165 1.45232 20.8268C1.24963 18.5691 1.06383 16.3114 0.872402 14.0536C0.652824 11.5088 0.433243 8.95828 0.219294 6.41342C0.202403 6.22199 0.191146 6.03056 0.174255 5.80535C2.09979 5.82224 4.01407 5.83913 5.93961 5.85039C5.99028 6.37963 6.03532 6.88073 6.08036 7.38182C6.28305 9.61139 6.48574 11.8353 6.68843 14.0649C6.85171 15.8497 7.01498 17.6345 7.17826 19.4136C7.31901 20.945 8.54077 22.133 10.0835 22.2006C10.1454 22.2006 10.2073 22.2006 10.2692 22.2062C10.8773 22.2231 11.4854 22.2062 12.0934 22.2118H13.2308V26.2206L18.7371 22.2062C21.0117 22.2062 23.292 22.2062 25.5722 22.2062H26.124C26.9066 22.2062 27.6892 22.2062 28.4718 22.2062C28.5675 22.2062 28.6688 22.2062 28.7646 22.2062C29.3388 22.2062 29.9075 22.2175 30.4818 22.1893C30.555 22.1893 30.6282 22.1781 30.7014 22.1724C30.8027 22.1612 30.8984 22.1443 30.9885 22.1274C31.1349 22.0992 31.27 22.0598 31.4051 22.0092C31.4277 22.0035 31.4502 21.9923 31.4727 21.981C32.3116 21.6263 32.9028 20.7874 32.9028 19.819C32.9028 19.8021 32.9028 19.7908 32.9028 19.774C32.9028 19.6557 32.8915 19.5431 32.869 19.4249C32.8296 18.9688 32.7845 18.5184 32.7451 18.0624C32.6213 16.683 32.4918 15.3035 32.3679 13.9298C32.2046 12.145 32.0413 10.3602 31.8781 8.58105C31.7373 7.04963 30.5156 5.86165 28.9729 5.79409C28.3029 5.76594 27.6329 5.78283 26.9629 5.78283C26.1803 5.78283 25.3977 5.78283 24.6151 5.78283C23.81 5.78283 23.0048 5.78283 22.1997 5.78283H20.9779C17.7012 5.78283 14.4244 5.78283 11.1532 5.78283C9.81321 5.78283 8.47884 5.78283 7.13884 5.78283C6.76162 5.78283 6.38439 5.7772 5.89456 5.77157C5.21331 3.85166 4.54331 1.9599 3.86205 0.0512557C4.08163 0.0456254 4.28995 0.034365 4.49264 0.034365C8.36624 0.034365 12.2398 0.0287347 16.1191 0.0231045C18.1459 0.0231045 20.1785 0.0231045 22.2053 0.0231045C22.5432 0.0231045 22.8866 0.0231045 23.2244 0.0231045C24.0971 0.0231045 24.9698 0.0231045 25.8368 0.0118441C26.7152 0.0118441 27.5935 0.00621383 28.4718 0.000583597C28.9109 0.000583597 29.3501 0.000583597 29.7892 0.000583597C30.6563 -0.0106769 31.4952 0.141339 32.3116 0.428481C34.8846 1.33495 36.6975 3.39561 37.3563 5.82224C37.4745 6.26703 37.559 6.72308 37.5984 7.17913C37.8011 9.43685 37.9869 11.6946 38.1783 13.9523C38.3866 16.362 38.5949 18.7718 38.7976 21.1871C38.7976 21.2491 38.8089 21.3054 38.8145 21.3673C38.8201 21.4518 38.8258 21.5418 38.8258 21.6319L38.8201 21.615Z" fill="white"/>
<path d="M13.6584 15.8725C14.6783 15.8725 15.5051 15.0457 15.5051 14.0258C15.5051 13.0059 14.6783 12.1791 13.6584 12.1791C12.6384 12.1791 11.8116 13.0059 11.8116 14.0258C11.8116 15.0457 12.6384 15.8725 13.6584 15.8725Z" fill="#FE7D05"/>
<path d="M19.0467 15.8725C20.0666 15.8725 20.8934 15.0457 20.8934 14.0258C20.8934 13.0059 20.0666 12.1791 19.0467 12.1791C18.0268 12.1791 17.2 13.0059 17.2 14.0258C17.2 15.0457 18.0268 15.8725 19.0467 15.8725Z" fill="#FE7D05"/>
<path d="M24.4351 15.8725C25.455 15.8725 26.2818 15.0457 26.2818 14.0258C26.2818 13.0059 25.455 12.1791 24.4351 12.1791C23.4152 12.1791 22.5884 13.0059 22.5884 14.0258C22.5884 15.0457 23.4152 15.8725 24.4351 15.8725Z" fill="#FE7D05"/>
</svg>
