<svg width="235" height="117" viewBox="0 0 235 117" fill="none" xmlns="http://www.w3.org/2000/svg">
<path d="M151.815 38.5253C151.815 39.3253 151.685 40.1053 151.445 40.8253C151.295 41.2353 151.115 41.6353 150.925 42.0253C149.355 45.2053 146.565 47.7953 142.925 49.0753C141.475 49.5853 139.985 49.8553 138.445 49.8353C137.665 49.8253 136.885 49.8353 136.105 49.8353C135.385 49.8353 134.665 49.8353 133.945 49.8353C133.105 49.8353 132.265 49.8353 131.425 49.8353C130.375 49.8353 129.325 49.8353 128.275 49.8253C125.325 49.8253 122.375 49.8253 119.425 49.8253C117.215 49.8253 115.005 49.8253 112.795 49.8253H112.205C111.795 49.8253 111.395 49.8253 110.985 49.8253C109.435 49.8253 107.885 49.8353 106.345 49.8453C104.785 49.8453 103.225 49.8553 101.665 49.8653C100.885 49.8653 100.105 49.8653 99.325 49.8653C98.175 49.8753 97.055 49.7353 95.965 49.4553C95.585 49.3553 95.215 49.2453 94.845 49.1153C89.445 47.2153 85.925 42.4353 85.445 37.1253C85.085 33.1153 84.755 29.1053 84.415 25.0953C84.025 20.5753 83.635 16.0453 83.255 11.5253C83.225 11.1853 83.205 10.8453 83.175 10.4453C86.595 10.4753 89.995 10.5053 93.415 10.5253C93.505 11.4653 93.585 12.3553 93.665 13.2453C94.025 17.2053 94.385 21.1553 94.745 25.1153C95.035 28.2853 95.325 31.4553 95.615 34.6153C95.865 37.3353 98.035 39.4453 100.775 39.5653C100.885 39.5653 100.995 39.5653 101.105 39.5753C102.185 39.6053 103.265 39.5753 104.345 39.5853H106.365V46.7053L116.145 39.5753C120.185 39.5753 124.235 39.5753 128.285 39.5753H129.265C130.655 39.5753 132.045 39.5753 133.435 39.5753C133.605 39.5753 133.785 39.5753 133.955 39.5753C134.975 39.5753 135.985 39.5953 137.005 39.5453C137.135 39.5453 137.265 39.5253 137.395 39.5153C137.575 39.4953 137.745 39.4653 137.905 39.4353C138.165 39.3853 138.405 39.3153 138.645 39.2253C138.685 39.2153 138.725 39.1953 138.765 39.1753C140.255 38.5453 141.305 37.0553 141.305 35.3353C141.305 35.3053 141.305 35.2853 141.305 35.2553C141.305 35.0453 141.285 34.8453 141.245 34.6353C141.175 33.8253 141.095 33.0253 141.025 32.2153C140.805 29.7653 140.575 27.3153 140.355 24.8753C140.065 21.7053 139.775 18.5353 139.485 15.3753C139.235 12.6553 137.065 10.5453 134.325 10.4253C133.135 10.3753 131.945 10.4053 130.755 10.4053C129.365 10.4053 127.975 10.4053 126.585 10.4053C125.155 10.4053 123.725 10.4053 122.295 10.4053H120.125C114.305 10.4053 108.485 10.4053 102.675 10.4053C100.295 10.4053 97.925 10.4053 95.545 10.4053C94.875 10.4053 94.205 10.3953 93.335 10.3853C92.125 6.97531 90.935 3.61531 89.725 0.225314C90.115 0.215314 90.485 0.195314 90.845 0.195314C97.725 0.195314 104.605 0.185314 111.495 0.175314C115.095 0.175314 118.705 0.175314 122.305 0.175314C122.905 0.175314 123.515 0.175314 124.115 0.175314C125.665 0.175314 127.215 0.175314 128.755 0.155314C130.315 0.155314 131.875 0.145314 133.435 0.135314C134.215 0.135314 134.995 0.135314 135.775 0.135314C137.315 0.115314 138.805 0.385314 140.255 0.895314C144.825 2.50531 148.045 6.16531 149.215 10.4753C149.425 11.2653 149.575 12.0753 149.645 12.8853C150.005 16.8953 150.335 20.9053 150.675 24.9153C151.045 29.1953 151.415 33.4753 151.775 37.7653C151.775 37.8753 151.795 37.9753 151.805 38.0853C151.815 38.2353 151.825 38.3953 151.825 38.5553L151.815 38.5253Z" fill="white"/>
<path d="M107.125 28.3253C108.936 28.3253 110.405 26.8568 110.405 25.0453C110.405 23.2338 108.936 21.7653 107.125 21.7653C105.314 21.7653 103.845 23.2338 103.845 25.0453C103.845 26.8568 105.314 28.3253 107.125 28.3253Z" fill="#FE7D05"/>
<path d="M116.695 28.3253C118.507 28.3253 119.975 26.8568 119.975 25.0453C119.975 23.2338 118.507 21.7653 116.695 21.7653C114.884 21.7653 113.415 23.2338 113.415 25.0453C113.415 26.8568 114.884 28.3253 116.695 28.3253Z" fill="#FE7D05"/>
<path d="M126.265 28.3253C128.076 28.3253 129.545 26.8568 129.545 25.0453C129.545 23.2338 128.076 21.7653 126.265 21.7653C124.454 21.7653 122.985 23.2338 122.985 25.0453C122.985 26.8568 124.454 28.3253 126.265 28.3253Z" fill="#FE7D05"/>
<path d="M4.3 106.866V72.5657H11.75V100.516H29.05V106.866H4.3ZM45.341 107.466C42.4743 107.466 40.041 106.982 38.041 106.016C36.041 105.016 34.5243 103.499 33.491 101.466C32.4577 99.3991 31.941 96.8157 31.941 93.7157C31.941 90.5491 32.4577 87.9657 33.491 85.9657C34.5243 83.9324 36.041 82.4324 38.041 81.4657C40.041 80.4657 42.4743 79.9657 45.341 79.9657C48.2744 79.9657 50.7243 80.4657 52.691 81.4657C54.691 82.4324 56.2077 83.9324 57.241 85.9657C58.2744 87.9657 58.791 90.5491 58.791 93.7157C58.791 96.8157 58.2744 99.3991 57.241 101.466C56.2077 103.499 54.691 105.016 52.691 106.016C50.7243 106.982 48.2744 107.466 45.341 107.466ZM45.341 102.066C46.8744 102.066 48.091 101.782 48.991 101.216C49.9243 100.649 50.6077 99.7824 51.041 98.6157C51.4744 97.4491 51.691 96.0157 51.691 94.3157V93.1157C51.691 91.4157 51.4744 89.9824 51.041 88.8157C50.6077 87.6491 49.9243 86.7824 48.991 86.2157C48.091 85.6157 46.8744 85.3157 45.341 85.3157C43.841 85.3157 42.6243 85.6157 41.691 86.2157C40.791 86.7824 40.1243 87.6491 39.691 88.8157C39.2577 89.9824 39.041 91.4157 39.041 93.1157V94.3157C39.041 96.0157 39.2577 97.4491 39.691 98.6157C40.1243 99.7824 40.791 100.649 41.691 101.216C42.6243 101.782 43.841 102.066 45.341 102.066ZM63.9051 106.866V80.5657H69.6551L70.2051 84.1657H70.5551C71.1551 83.2991 71.8717 82.5491 72.7051 81.9157C73.5717 81.2824 74.5384 80.7991 75.6051 80.4657C76.6717 80.1324 77.8384 79.9657 79.1051 79.9657C80.8384 79.9657 82.3551 80.2824 83.6551 80.9157C84.9551 81.5491 85.9551 82.5491 86.6551 83.9157C87.3884 85.2824 87.7551 87.0657 87.7551 89.2657V106.866H80.8051V90.3657C80.8051 89.5324 80.7051 88.8324 80.5051 88.2657C80.3051 87.6657 80.0051 87.1824 79.6051 86.8157C79.2384 86.4157 78.7717 86.1324 78.2051 85.9657C77.6384 85.7991 77.0051 85.7157 76.3051 85.7157C75.2717 85.7157 74.3384 85.9657 73.5051 86.4657C72.6717 86.9657 72.0217 87.6491 71.5551 88.5157C71.0884 89.3824 70.8551 90.3824 70.8551 91.5157V106.866H63.9051ZM98.2832 116.266C97.1165 116.266 96.0165 116.016 94.9832 115.516C93.9499 115.049 93.1165 114.349 92.4832 113.416C91.8499 112.482 91.5332 111.366 91.5332 110.066C91.5332 108.599 91.9499 107.432 92.7832 106.566C93.6499 105.666 94.6165 104.999 95.6832 104.566C94.9165 104.132 94.2832 103.566 93.7832 102.866C93.3165 102.166 93.0832 101.349 93.0832 100.416C93.0832 99.1157 93.5499 98.0657 94.4832 97.2657C95.4499 96.4324 96.5499 95.8991 97.7832 95.6657C96.5499 94.8991 95.5832 93.9324 94.8832 92.7657C94.2165 91.5657 93.8832 90.2324 93.8832 88.7657C93.8832 86.8657 94.3499 85.2657 95.2832 83.9657C96.2499 82.6657 97.6165 81.6824 99.3832 81.0157C101.183 80.3157 103.3 79.9657 105.733 79.9657C106.7 79.9657 107.6 80.0157 108.433 80.1157C109.3 80.2157 110.083 80.3824 110.783 80.6157C112.017 79.8824 112.85 79.0824 113.283 78.2157C113.75 77.3157 114 76.5991 114.033 76.0657H120.483C120.483 77.2991 120.25 78.3657 119.783 79.2657C119.35 80.1657 118.717 80.9157 117.883 81.5157C117.05 82.0824 116.05 82.4991 114.883 82.7657C115.75 83.4991 116.417 84.3824 116.883 85.4157C117.35 86.4491 117.583 87.5657 117.583 88.7657C117.583 90.6324 117.133 92.2324 116.233 93.5657C115.333 94.8657 114.05 95.8657 112.383 96.5657C110.75 97.2657 108.783 97.6157 106.483 97.6157H102.483C101.683 97.6157 101.083 97.7657 100.683 98.0657C100.283 98.3324 100.083 98.7324 100.083 99.2657C100.083 99.6991 100.25 100.082 100.583 100.416C100.95 100.716 101.533 100.866 102.333 100.866H113.283C115.483 100.866 117.233 101.549 118.533 102.916C119.867 104.249 120.533 105.966 120.533 108.066C120.533 109.666 120.117 111.082 119.283 112.316C118.45 113.549 117.3 114.516 115.833 115.216C114.367 115.916 112.683 116.266 110.783 116.266H98.2832ZM101.183 111.616H110.433C111.033 111.616 111.567 111.499 112.033 111.266C112.5 111.066 112.867 110.766 113.133 110.366C113.4 109.999 113.533 109.566 113.533 109.066C113.533 108.199 113.267 107.549 112.733 107.116C112.2 106.682 111.533 106.466 110.733 106.466H101.183C100.383 106.466 99.7165 106.699 99.1832 107.166C98.6832 107.632 98.4332 108.249 98.4332 109.016C98.4332 109.782 98.6832 110.399 99.1832 110.866C99.7165 111.366 100.383 111.616 101.183 111.616ZM105.733 93.1157C107.367 93.1157 108.6 92.7491 109.433 92.0157C110.3 91.2491 110.733 90.1657 110.733 88.7657C110.733 87.3657 110.3 86.2991 109.433 85.5657C108.6 84.7991 107.367 84.4157 105.733 84.4157C104.133 84.4157 102.9 84.7991 102.033 85.5657C101.2 86.2991 100.783 87.3657 100.783 88.7657C100.783 89.6657 100.967 90.4491 101.333 91.1157C101.7 91.7824 102.25 92.2824 102.983 92.6157C103.717 92.9491 104.633 93.1157 105.733 93.1157ZM140.304 107.466C136.738 107.466 133.688 106.849 131.154 105.616C128.621 104.349 126.688 102.399 125.354 99.7657C124.054 97.1324 123.404 93.7824 123.404 89.7157C123.404 83.7157 124.871 79.2657 127.804 76.3657C130.771 73.4324 134.938 71.9657 140.304 71.9657C143.238 71.9657 145.871 72.4657 148.204 73.4657C150.538 74.4657 152.371 75.9657 153.704 77.9657C155.071 79.9657 155.754 82.4824 155.754 85.5157H148.254C148.254 83.9157 147.921 82.5657 147.254 81.4657C146.621 80.3657 145.704 79.5324 144.504 78.9657C143.338 78.3657 141.971 78.0657 140.404 78.0657C138.271 78.0657 136.504 78.4824 135.104 79.3157C133.738 80.1491 132.721 81.3824 132.054 83.0157C131.421 84.6157 131.104 86.5824 131.104 88.9157V90.4657C131.104 92.8657 131.438 94.8824 132.104 96.5157C132.771 98.1157 133.771 99.3324 135.104 100.166C136.471 100.966 138.221 101.366 140.354 101.366C142.021 101.366 143.471 101.082 144.704 100.516C145.938 99.9491 146.888 99.1157 147.554 98.0157C148.221 96.9157 148.554 95.5657 148.554 93.9657H155.754C155.754 96.9991 155.088 99.5157 153.754 101.516C152.454 103.516 150.638 105.016 148.304 106.016C145.971 106.982 143.304 107.466 140.304 107.466ZM161.024 106.866V70.7157H167.974V83.4657H168.324C168.891 82.7657 169.558 82.1657 170.324 81.6657C171.124 81.1324 172.008 80.7157 172.974 80.4157C173.974 80.1157 175.058 79.9657 176.224 79.9657C177.958 79.9657 179.474 80.2824 180.774 80.9157C182.074 81.5491 183.074 82.5491 183.774 83.9157C184.508 85.2824 184.874 87.0657 184.874 89.2657V106.866H177.924V90.3657C177.924 89.5324 177.824 88.8324 177.624 88.2657C177.424 87.6657 177.124 87.1824 176.724 86.8157C176.358 86.4157 175.891 86.1324 175.324 85.9657C174.758 85.7991 174.124 85.7157 173.424 85.7157C172.391 85.7157 171.458 85.9657 170.624 86.4657C169.791 86.9657 169.141 87.6491 168.674 88.5157C168.208 89.3824 167.974 90.3824 167.974 91.5157V106.866H161.024ZM198.052 107.466C197.186 107.466 196.252 107.366 195.252 107.166C194.286 106.966 193.369 106.616 192.502 106.116C191.636 105.582 190.919 104.832 190.352 103.866C189.819 102.866 189.552 101.599 189.552 100.066C189.552 98.2324 189.952 96.7157 190.752 95.5157C191.552 94.3157 192.686 93.3824 194.152 92.7157C195.652 92.0157 197.436 91.5324 199.502 91.2657C201.569 90.9991 203.852 90.8657 206.352 90.8657V88.9157C206.352 88.1491 206.219 87.4824 205.952 86.9157C205.719 86.3491 205.286 85.8991 204.652 85.5657C204.052 85.2324 203.202 85.0657 202.102 85.0657C201.002 85.0657 200.102 85.1991 199.402 85.4657C198.736 85.7324 198.252 86.0824 197.952 86.5157C197.686 86.9157 197.552 87.3657 197.552 87.8657V88.4657H190.802C190.769 88.2991 190.752 88.1491 190.752 88.0157C190.752 87.8491 190.752 87.6491 190.752 87.4157C190.752 85.8824 191.219 84.5657 192.152 83.4657C193.086 82.3324 194.402 81.4657 196.102 80.8657C197.802 80.2657 199.786 79.9657 202.052 79.9657C204.486 79.9657 206.519 80.2824 208.152 80.9157C209.819 81.5491 211.086 82.4824 211.952 83.7157C212.852 84.9491 213.302 86.4991 213.302 88.3657V100.316C213.302 100.916 213.469 101.366 213.802 101.666C214.169 101.932 214.569 102.066 215.002 102.066H216.652V106.616C216.319 106.782 215.802 106.949 215.102 107.116C214.402 107.316 213.552 107.416 212.552 107.416C211.586 107.416 210.719 107.266 209.952 106.966C209.219 106.699 208.602 106.316 208.102 105.816C207.602 105.282 207.252 104.649 207.052 103.916H206.702C206.136 104.616 205.436 105.232 204.602 105.766C203.802 106.299 202.852 106.716 201.752 107.016C200.686 107.316 199.452 107.466 198.052 107.466ZM200.402 102.216C201.336 102.216 202.169 102.082 202.902 101.816C203.636 101.516 204.252 101.132 204.752 100.666C205.252 100.166 205.636 99.5657 205.902 98.8657C206.202 98.1657 206.352 97.4157 206.352 96.6157V95.1657C204.486 95.1657 202.819 95.2991 201.352 95.5657C199.886 95.7991 198.719 96.2157 197.852 96.8157C197.019 97.4157 196.602 98.2491 196.602 99.3157C196.602 99.9157 196.752 100.432 197.052 100.866C197.352 101.299 197.786 101.632 198.352 101.866C198.919 102.099 199.602 102.216 200.402 102.216ZM227.956 107.466C226.29 107.466 224.94 107.166 223.906 106.566C222.873 105.966 222.123 105.166 221.656 104.166C221.19 103.132 220.956 101.999 220.956 100.766V85.9157H217.706V80.5657H221.206L222.506 73.0657H227.906V80.5657H232.706V85.9157H227.906V99.6157C227.906 100.416 228.09 101.032 228.456 101.466C228.823 101.866 229.423 102.066 230.256 102.066H232.706V106.666C232.306 106.799 231.84 106.916 231.306 107.016C230.773 107.149 230.206 107.249 229.606 107.316C229.006 107.416 228.456 107.466 227.956 107.466Z" fill="white"/>
</svg>
